<mxfile host="app.diagrams.net" modified="2023-05-11T03:16:19.060Z" agent="Mozilla/5.0 (X11; Linux x86_64) AppleWebKit/537.36 (KHTML, like Gecko) Chrome/112.0.0.0 Safari/537.36" version="21.2.9" etag="3mFJUnNkUncfW9wq0Ws1" type="github">
  <diagram name="Page-1" id="3hc3bgPOsE26eXgsOXcH">
    <mxGraphModel>
      <root>
        <mxCell id="0" />
        <mxCell id="1" parent="0" />
      </root>
    </mxGraphModel>
  </diagram>
</mxfile>
